<svg width="20" height="19" viewBox="0 0 20 19" fill="none" xmlns="http://www.w3.org/2000/svg">
<path d="M19.5165 9.58877C19.5165 14.5063 15.166 18.4927 9.79939 18.4927C4.43276 18.4927 0.0822754 14.5063 0.0822754 9.58877C0.0822754 4.67124 4.43276 0.684814 9.79939 0.684814C15.166 0.684814 19.5165 4.67124 19.5165 9.58877ZM8.67542 14.3033L15.8849 7.69718C16.1297 7.47286 16.1297 7.10912 15.8849 6.8848L14.9983 6.07242C14.7535 5.84806 14.3566 5.84806 14.1117 6.07242L8.23211 11.46L5.48707 8.94463C5.24226 8.72031 4.84531 8.72031 4.60046 8.94463L3.71389 9.75701C3.46908 9.98133 3.46908 10.3451 3.71389 10.5694L7.78881 14.3033C8.03366 14.5277 8.43057 14.5277 8.67542 14.3033Z" fill="currentColor"/>
</svg>
