<svg width="17" height="19" viewBox="0 0 17 19" fill="none" xmlns="http://www.w3.org/2000/svg">
<path d="M1.19803 17.0566C1.19803 17.5136 1.3796 17.952 1.70279 18.2752C2.02598 18.5983 2.46432 18.7799 2.92138 18.7799H13.2615C13.7185 18.7799 14.1568 18.5983 14.48 18.2752C14.8032 17.952 14.9848 17.5136 14.9848 17.0566V4.99315H1.19803V17.0566ZM10.9637 7.86539C10.9637 7.71304 11.0242 7.56692 11.1319 7.45919C11.2396 7.35146 11.3858 7.29094 11.5381 7.29094C11.6905 7.29094 11.8366 7.35146 11.9443 7.45919C12.052 7.56692 12.1126 7.71304 12.1126 7.86539V15.9077C12.1126 16.06 12.052 16.2061 11.9443 16.3139C11.8366 16.4216 11.6905 16.4821 11.5381 16.4821C11.3858 16.4821 11.2396 16.4216 11.1319 16.3139C11.0242 16.2061 10.9637 16.06 10.9637 15.9077V7.86539ZM7.51696 7.86539C7.51696 7.71304 7.57749 7.56692 7.68522 7.45919C7.79295 7.35146 7.93906 7.29094 8.09141 7.29094C8.24377 7.29094 8.38988 7.35146 8.49761 7.45919C8.60534 7.56692 8.66586 7.71304 8.66586 7.86539V15.9077C8.66586 16.06 8.60534 16.2061 8.49761 16.3139C8.38988 16.4216 8.24377 16.4821 8.09141 16.4821C7.93906 16.4821 7.79295 16.4216 7.68522 16.3139C7.57749 16.2061 7.51696 16.06 7.51696 15.9077V7.86539ZM4.07027 7.86539C4.07027 7.71304 4.1308 7.56692 4.23853 7.45919C4.34626 7.35146 4.49237 7.29094 4.64472 7.29094C4.79708 7.29094 4.94319 7.35146 5.05092 7.45919C5.15865 7.56692 5.21917 7.71304 5.21917 7.86539V15.9077C5.21917 16.06 5.15865 16.2061 5.05092 16.3139C4.94319 16.4216 4.79708 16.4821 4.64472 16.4821C4.49237 16.4821 4.34626 16.4216 4.23853 16.3139C4.1308 16.2061 4.07027 16.06 4.07027 15.9077V7.86539ZM15.5592 1.54646H11.2509L10.9134 0.875069C10.8419 0.731534 10.7318 0.610795 10.5954 0.526436C10.459 0.442076 10.3018 0.397444 10.1415 0.397559H6.03776C5.87777 0.396944 5.72084 0.44141 5.58495 0.525863C5.44907 0.610316 5.33972 0.73134 5.26943 0.875069L4.93195 1.54646H0.623582C0.471229 1.54646 0.325115 1.60698 0.217385 1.71471C0.109655 1.82244 0.0491333 1.96855 0.0491333 2.1209L0.0491333 3.2698C0.0491333 3.42215 0.109655 3.56827 0.217385 3.676C0.325115 3.78373 0.471229 3.84425 0.623582 3.84425H15.5592C15.7116 3.84425 15.8577 3.78373 15.9654 3.676C16.0732 3.56827 16.1337 3.42215 16.1337 3.2698V2.1209C16.1337 1.96855 16.0732 1.82244 15.9654 1.71471C15.8577 1.60698 15.7116 1.54646 15.5592 1.54646Z" fill="#B10000"/>
</svg>
