<svg width="29" height="24" viewBox="0 0 29 24" fill="none" xmlns="http://www.w3.org/2000/svg">
<path d="M2.71875 0C2.18103 0 1.65539 0.162413 1.20829 0.466699C0.761198 0.770986 0.412729 1.20348 0.206954 1.70949C0.001178 2.2155 -0.0526623 2.7723 0.0522412 3.30948C0.157145 3.84666 0.416081 4.34009 0.796305 4.72737C1.17653 5.11466 1.66096 5.3784 2.18835 5.48525C2.71574 5.5921 3.26239 5.53726 3.75917 5.32767C4.25596 5.11807 4.68057 4.76313 4.97931 4.30773C5.27805 3.85234 5.4375 3.31693 5.4375 2.76923C5.4375 2.03478 5.15106 1.33042 4.6412 0.811089C4.13133 0.291757 3.43981 0 2.71875 0ZM2.71875 9.23077C2.18103 9.23077 1.65539 9.39318 1.20829 9.69747C0.761198 10.0018 0.412729 10.4342 0.206954 10.9403C0.001178 11.4463 -0.0526623 12.0031 0.0522412 12.5403C0.157145 13.0774 0.416081 13.5709 0.796305 13.9581C1.17653 14.3454 1.66096 14.6092 2.18835 14.716C2.71574 14.8229 3.26239 14.768 3.75917 14.5584C4.25596 14.3488 4.68057 13.9939 4.97931 13.5385C5.27805 13.0831 5.4375 12.5477 5.4375 12C5.4375 11.2656 5.15106 10.5612 4.6412 10.0419C4.13133 9.52253 3.43981 9.23077 2.71875 9.23077ZM2.71875 18.4615C2.18103 18.4615 1.65539 18.6239 1.20829 18.9282C0.761198 19.2325 0.412729 19.665 0.206954 20.171C0.001178 20.677 -0.0526623 21.2338 0.0522412 21.771C0.157145 22.3082 0.416081 22.8016 0.796305 23.1889C1.17653 23.5762 1.66096 23.8399 2.18835 23.9468C2.71574 24.0536 3.26239 23.9988 3.75917 23.7892C4.25596 23.5796 4.68057 23.2247 4.97931 22.7693C5.27805 22.3139 5.4375 21.7785 5.4375 21.2308C5.4375 20.4963 5.15106 19.792 4.6412 19.2726C4.13133 18.7533 3.43981 18.4615 2.71875 18.4615ZM28.0938 19.3846H9.96875C9.7284 19.3846 9.49789 19.4819 9.32794 19.655C9.15798 19.8281 9.0625 20.0629 9.0625 20.3077V22.1538C9.0625 22.3987 9.15798 22.6334 9.32794 22.8066C9.49789 22.9797 9.7284 23.0769 9.96875 23.0769H28.0938C28.3341 23.0769 28.5646 22.9797 28.7346 22.8066C28.9045 22.6334 29 22.3987 29 22.1538V20.3077C29 20.0629 28.9045 19.8281 28.7346 19.655C28.5646 19.4819 28.3341 19.3846 28.0938 19.3846ZM28.0938 0.923077H9.96875C9.7284 0.923077 9.49789 1.02033 9.32794 1.19344C9.15798 1.36655 9.0625 1.60134 9.0625 1.84615V3.69231C9.0625 3.93712 9.15798 4.17191 9.32794 4.34502C9.49789 4.51813 9.7284 4.61538 9.96875 4.61538H28.0938C28.3341 4.61538 28.5646 4.51813 28.7346 4.34502C28.9045 4.17191 29 3.93712 29 3.69231V1.84615C29 1.60134 28.9045 1.36655 28.7346 1.19344C28.5646 1.02033 28.3341 0.923077 28.0938 0.923077V0.923077ZM28.0938 10.1538H9.96875C9.7284 10.1538 9.49789 10.2511 9.32794 10.4242C9.15798 10.5973 9.0625 10.8321 9.0625 11.0769V12.9231C9.0625 13.1679 9.15798 13.4027 9.32794 13.5758C9.49789 13.7489 9.7284 13.8462 9.96875 13.8462H28.0938C28.3341 13.8462 28.5646 13.7489 28.7346 13.5758C28.9045 13.4027 29 13.1679 29 12.9231V11.0769C29 10.8321 28.9045 10.5973 28.7346 10.4242C28.5646 10.2511 28.3341 10.1538 28.0938 10.1538Z" fill="currentColor"/>
</svg>
