<svg width="31" height="19" viewBox="0 0 31 19" fill="none" xmlns="http://www.w3.org/2000/svg">
<path d="M8.94811 10.4739C8.94811 11.1824 8.37269 11.7568 7.66289 11.7568C6.95308 11.7568 6.37767 11.1824 6.37767 10.4739C6.37767 9.76529 6.95308 9.19087 7.66289 9.19087C8.37269 9.19087 8.94811 9.76523 8.94811 10.4739ZM23.1572 9.19141C22.4477 9.19141 21.8725 9.76556 21.8725 10.4739C21.8725 11.1821 22.4477 11.7563 23.1572 11.7563C23.8667 11.7563 24.4419 11.1822 24.4419 10.4739C24.4418 9.76556 23.8667 9.19141 23.1572 9.19141ZM27.9508 16.6588C24.5902 19.2875 19.7311 18.6989 17.0978 15.3441L15.4365 17.824L13.7911 15.3647C11.2022 18.5976 6.51812 19.2133 3.17915 16.7596C-0.256086 14.235 -0.990828 9.40854 1.53811 5.97929C1.21293 4.88049 0.700972 3.84566 0.0245972 2.92L4.86635 2.91733C8.03333 0.950151 11.7052 -0.0548222 15.4343 0.0249094C19.0743 -0.0398698 22.6547 0.952322 25.7404 2.88087L30.9003 2.88483C30.2177 3.81757 29.7032 4.86191 29.3798 5.97099C31.8892 9.33006 31.2549 14.0744 27.9508 16.6588ZM13.9336 10.5402C13.9332 7.13781 11.1699 4.37986 7.76156 4.38024C4.3532 4.38061 1.5905 7.13909 1.59082 10.5415C1.5912 13.944 4.35449 16.7019 7.76285 16.7015C11.1689 16.6975 13.9291 13.9425 13.9336 10.5424V10.5402ZM15.4668 9.98055C15.7582 6.04904 18.9799 2.97386 22.9274 2.8594C20.5635 1.8391 18.0094 1.33161 15.4343 1.37053C12.8558 1.34557 10.299 1.84185 7.91772 2.82948C11.9046 2.91417 15.1734 6.01066 15.4668 9.98055ZM28.965 8.44055C27.7857 5.24813 24.2372 3.6146 21.0393 4.79186C17.8413 5.96917 16.2049 9.51149 17.3842 12.7039V12.7056C18.566 15.8965 22.114 17.5285 25.3117 16.3519C28.5087 15.1739 30.1442 11.6323 28.965 8.44055ZM11.4806 10.4735V10.4796C11.4775 12.585 9.76528 14.2892 7.65624 14.2862C5.5472 14.2831 3.83999 12.5739 3.84305 10.4685C3.8461 8.36314 5.55836 6.6589 7.66739 6.66195C9.77273 6.66816 11.4772 8.37181 11.4806 10.4735ZM10.1661 10.4735V10.469C10.1633 9.08868 9.04024 7.97191 7.65753 7.97464C6.27481 7.97737 5.1561 9.09853 5.15883 10.4788C5.16157 11.8591 6.28468 12.9759 7.66734 12.9731C9.04694 12.9671 10.163 11.8506 10.1661 10.4735ZM26.974 10.4735V10.4761C26.9729 12.5814 25.2623 14.2873 23.1532 14.2862C21.0441 14.2851 19.3353 12.5775 19.3364 10.4721C19.3375 8.36672 21.0481 6.66082 23.1572 6.66195C25.2642 6.66548 26.9712 8.37015 26.974 10.4735ZM25.6599 10.4731C25.6594 9.09275 24.5381 7.97416 23.1554 7.97464C21.7727 7.97513 20.6522 9.09446 20.6527 10.4748C20.6531 11.8551 21.7744 12.9736 23.1571 12.9732C24.5388 12.9707 25.6581 11.8528 25.6599 10.4735V10.4731Z" fill="currentColor"/>
</svg>
